<?xml version="1.0" encoding="utf-8"?>
<!-- Generator: Adobe Illustrator 26.5.0, SVG Export Plug-In . SVG Version: 6.00 Build 0)  -->
<svg version="1.1" id="Layer_1" xmlns="http://www.w3.org/2000/svg" xmlns:xlink="http://www.w3.org/1999/xlink" x="0px" y="0px"
	 viewBox="0 0 443.28 47.78" style="enable-background:new 0 0 443.28 47.78;" xml:space="preserve">
<style type="text/css">
	.st0{fill:#FFFFFF;}
</style>
<g>
	<g>
		<path class="st0" d="M114.53,30.82h-12.07c-1.53,0-2.57,1.54-2,2.96l5.1,12.65c0.33,0.82,1.12,1.35,2,1.35h12.07
			c1.53,0,2.57-1.54,2-2.96l-5.1-12.65C116.2,31.36,115.41,30.82,114.53,30.82z"/>
		<path class="st0" d="M7.25,16.96h12.07c1.53,0,2.57-1.54,2-2.96l-5.1-12.65C15.89,0.53,15.1,0,14.22,0L2.16,0
			c-1.53,0-2.57,1.54-2,2.96l5.1,12.65C5.59,16.42,6.38,16.96,7.25,16.96z"/>
		<g>
			<path class="st0" d="M90.47,0l12.07,0c1.53,0,2.57,1.54,2,2.96L87.08,46.43c-0.33,0.82-1.12,1.35-2,1.35H73.01
				c-1.53,0-2.57-1.54-2-2.96L88.47,1.35C88.8,0.54,89.59,0,90.47,0z"/>
			<path class="st0" d="M62.35,0l12.07,0c1.53,0,2.57,1.54,2,2.96L58.96,46.43c-0.33,0.82-1.12,1.35-2,1.35H44.89
				c-1.53,0-2.57-1.54-2-2.96L60.35,1.35C60.68,0.54,61.47,0,62.35,0z"/>
			<path class="st0" d="M36.71,0l12.07,0c1.53,0,2.57,1.54,2,2.96L33.32,46.43c-0.33,0.82-1.12,1.35-2,1.35H19.25
				c-1.53,0-2.57-1.54-2-2.96L34.71,1.35C35.04,0.54,35.83,0,36.71,0z"/>
		</g>
	</g>
	<g>
		<path class="st0" d="M139.35,6.71h5.57c0.98,0,1.78,0.79,1.78,1.78v7.44c0,1.61,1.97,2.39,3.07,1.22l9.27-9.88
			c0.34-0.36,0.8-0.56,1.29-0.56h6.04c1.57,0,2.37,1.89,1.27,3.01l-11.71,12.02c-0.65,0.67-0.67,1.72-0.06,2.42l12.4,13.96
			c1.02,1.15,0.2,2.96-1.33,2.96h-6.3c-0.52,0-1.01-0.23-1.35-0.62l-9.48-11.11c-1.07-1.26-3.13-0.5-3.13,1.15v8.8
			c0,0.98-0.79,1.78-1.78,1.78h-5.57c-0.98,0-1.78-0.79-1.78-1.78V8.48C137.58,7.5,138.37,6.71,139.35,6.71z"/>
		<path class="st0" d="M183.09,41.07h-5.35c-0.98,0-1.78-0.79-1.78-1.78V8.48c0-0.98,0.79-1.78,1.78-1.78h9.06
			c0.71,0,1.35,0.42,1.63,1.07l8.87,20.41c0.62,1.43,2.64,1.42,3.26-0.01l8.77-20.39c0.28-0.65,0.92-1.07,1.63-1.07h9.22
			c0.98,0,1.78,0.79,1.78,1.78V39.3c0,0.98-0.79,1.78-1.78,1.78h-5.35c-0.98,0-1.78-0.79-1.78-1.78V25.03c0-1.93-2.64-2.47-3.4-0.71
			L202.81,40c-0.28,0.65-0.92,1.07-1.63,1.07h-4.51c-0.71,0-1.35-0.42-1.63-1.07l-6.77-15.64c-0.77-1.77-3.4-1.22-3.4,0.71V39.3
			C184.86,40.28,184.07,41.07,183.09,41.07z"/>
		<path class="st0" d="M235.69,41.07h-5.81c-1.24,0-2.1-1.24-1.66-2.4l11.63-30.81c0.26-0.69,0.92-1.15,1.66-1.15h10.79
			c0.74,0,1.4,0.46,1.66,1.15l11.59,30.81c0.44,1.16-0.42,2.4-1.66,2.4h-5.76c-0.74,0-1.41-0.46-1.66-1.16l-1.26-3.38
			c-0.26-0.7-0.92-1.16-1.66-1.16h-13.28c-0.74,0-1.41,0.46-1.66,1.16l-1.26,3.38C237.1,40.61,236.43,41.07,235.69,41.07z
			 M243.41,29.58h7c1.24,0,2.1-1.25,1.66-2.41l-3.5-9.17c-0.58-1.52-2.74-1.52-3.32,0l-3.5,9.17
			C241.31,28.34,242.17,29.58,243.41,29.58z"/>
		<path class="st0" d="M286,42.28c-8.83,0-15.42-4.25-16.67-10.36c-0.23-1.1,0.62-2.14,1.75-2.14h4.67c0.8,0,1.54,0.52,1.73,1.3
			c0.77,3.02,4.22,5.07,8.8,5.07c4.45,0,7.22-1.98,7.22-4.73c0-3.23-4.18-3.72-8.96-4.25c-7.66-0.87-15.04-2.32-15.04-10.33
			c0-6.71,6.46-11.34,15.8-11.34c8.39,0,14.7,4,15.95,9.78c0.24,1.1-0.62,2.15-1.75,2.15h-4.41c-0.8,0-1.5-0.53-1.7-1.3
			c-0.72-2.68-3.83-4.49-7.88-4.49c-4.29,0-7.11,1.79-7.11,4.29c0,3.23,3.85,3.72,8.74,4.3c7.49,0.77,15.26,2.22,15.26,10.13
			C302.4,37.4,295.83,42.28,286,42.28z"/>
		<path class="st0" d="M314.85,13.46h-8.07c-0.98,0-1.78-0.79-1.78-1.78V8.48c0-0.98,0.79-1.78,1.78-1.78h28.81
			c0.98,0,1.78,0.79,1.78,1.78v3.21c0,0.98-0.79,1.78-1.78,1.78h-8.07c-0.98,0-1.78,0.79-1.78,1.78V39.3c0,0.98-0.79,1.78-1.78,1.78
			h-5.57c-0.98,0-1.78-0.79-1.78-1.78V15.24C316.62,14.26,315.83,13.46,314.85,13.46z"/>
		<path class="st0" d="M344.38,41.07h-5.81c-1.24,0-2.1-1.24-1.66-2.4l11.63-30.81c0.26-0.69,0.92-1.15,1.66-1.15h10.79
			c0.74,0,1.4,0.46,1.66,1.15l11.59,30.81c0.44,1.16-0.42,2.4-1.66,2.4h-5.76c-0.74,0-1.41-0.46-1.66-1.16l-1.26-3.38
			c-0.26-0.7-0.92-1.16-1.66-1.16h-13.28c-0.74,0-1.41,0.46-1.66,1.16l-1.26,3.38C345.78,40.61,345.12,41.07,344.38,41.07z
			 M352.1,29.58h7c1.24,0,2.1-1.25,1.66-2.41l-3.5-9.17c-0.58-1.52-2.74-1.52-3.32,0l-3.5,9.17C350,28.34,350.85,29.58,352.1,29.58z
			"/>
		<path class="st0" d="M385.58,28.67L373.81,9.41c-0.72-1.18,0.13-2.7,1.52-2.7h5.46c0.64,0,1.23,0.35,1.55,0.91l6.49,11.53
			c0.69,1.22,2.45,1.2,3.11-0.03l6.17-11.47c0.31-0.58,0.91-0.93,1.56-0.93h5.63c1.38,0,2.23,1.5,1.52,2.69l-11.55,19.28
			c-0.17,0.28-0.25,0.59-0.25,0.91v9.7c0,0.98-0.79,1.78-1.78,1.78h-5.62c-0.98,0-1.78-0.79-1.78-1.78V29.6
			C385.84,29.27,385.75,28.95,385.58,28.67z"/>
		<path class="st0" d="M426.88,42.28c-8.83,0-15.42-4.25-16.67-10.36c-0.23-1.1,0.62-2.14,1.75-2.14h4.67c0.8,0,1.54,0.52,1.73,1.3
			c0.77,3.02,4.22,5.07,8.8,5.07c4.45,0,7.22-1.98,7.22-4.73c0-3.23-4.18-3.72-8.96-4.25c-7.66-0.87-15.04-2.32-15.04-10.33
			c0-6.71,6.46-11.34,15.8-11.34c8.39,0,14.7,4,15.95,9.78c0.24,1.1-0.62,2.15-1.75,2.15h-4.41c-0.8,0-1.5-0.53-1.7-1.3
			c-0.72-2.68-3.83-4.49-7.88-4.49c-4.29,0-7.11,1.79-7.11,4.29c0,3.23,3.85,3.72,8.74,4.3c7.49,0.77,15.26,2.22,15.26,10.13
			C443.28,37.4,436.71,42.28,426.88,42.28z"/>
	</g>
</g>
</svg>
