<?xml version="1.0" encoding="utf-8"?>
<!-- Generator: Adobe Illustrator 26.5.0, SVG Export Plug-In . SVG Version: 6.00 Build 0)  -->
<svg version="1.1" id="Layer_1" xmlns="http://www.w3.org/2000/svg" xmlns:xlink="http://www.w3.org/1999/xlink" x="0px" y="0px"
	 viewBox="0 0 431.19 135.2" style="enable-background:new 0 0 431.19 135.2;" xml:space="preserve">
<g>
	<g>
		<path d="M284.54,39.63h-15.52c-1.97,0-3.3,1.98-2.57,3.8l6.56,16.26c0.42,1.05,1.44,1.74,2.57,1.74h15.52
			c1.97,0,3.3-1.98,2.57-3.8l-6.56-16.26C286.69,40.31,285.67,39.63,284.54,39.63z"/>
		<path d="M146.64,21.8h15.52c1.97,0,3.3-1.98,2.57-3.8l-6.56-16.26C157.74,0.68,156.73,0,155.6,0h-15.5c-1.97,0-3.3,1.98-2.57,3.8
			l6.56,16.26C144.5,21.12,145.52,21.8,146.64,21.8z"/>
		<g>
			<path d="M253.61,0.01h15.52c1.97,0,3.3,1.98,2.57,3.8l-22.44,55.87c-0.42,1.05-1.44,1.74-2.57,1.74h-15.52
				c-1.97,0-3.3-1.98-2.57-3.8l22.44-55.87C251.47,0.69,252.48,0.01,253.61,0.01z"/>
			<path d="M217.47,0.01h15.52c1.97,0,3.3,1.98,2.57,3.8l-22.44,55.87c-0.42,1.05-1.44,1.74-2.57,1.74h-15.52
				c-1.97,0-3.3-1.98-2.57-3.8l22.44-55.87C215.32,0.69,216.33,0.01,217.47,0.01z"/>
			<path d="M184.51,0.01h15.52c1.97,0,3.3,1.98,2.57,3.8l-22.44,55.87c-0.42,1.05-1.44,1.74-2.57,1.74h-15.52
				c-1.97,0-3.3-1.98-2.57-3.8l22.44-55.87C182.36,0.69,183.38,0.01,184.51,0.01z"/>
		</g>
	</g>
	<g>
		<g>
			<path d="M2.43,86.9H10c1.33,0,2.41,1.08,2.41,2.41v10.11c0,2.19,2.68,3.24,4.17,1.65l12.59-13.41c0.46-0.49,1.09-0.76,1.76-0.76
				h8.2c2.13,0,3.21,2.57,1.73,4.09l-15.9,16.32c-0.88,0.91-0.92,2.34-0.08,3.28l16.84,18.95c1.39,1.55,0.27,4.01-1.81,4.01h-8.56
				c-0.7,0-1.38-0.31-1.84-0.85l-12.88-15.09c-1.45-1.71-4.25-0.67-4.25,1.56v11.97c0,1.33-1.08,2.41-2.41,2.41H2.41
				c-1.33,0-2.41-1.08-2.41-2.41V89.31C0.02,87.97,1.1,86.9,2.43,86.9z"/>
			<path d="M61.83,133.56h-7.27c-1.33,0-2.41-1.08-2.41-2.41V89.31c0-1.33,1.08-2.41,2.41-2.41h12.3c0.96,0,1.83,0.57,2.21,1.45
				l12.04,27.71c0.84,1.93,3.59,1.93,4.42-0.01l11.91-27.69c0.38-0.89,1.25-1.45,2.22-1.45h12.52c1.33,0,2.41,1.08,2.41,2.41v41.83
				c0,1.33-1.08,2.41-2.41,2.41h-7.27c-1.33,0-2.41-1.08-2.41-2.41v-19.37c0-2.62-3.57-3.36-4.62-0.97l-9.28,21.3
				c-0.38,0.88-1.25,1.45-2.21,1.45h-6.12c-0.96,0-1.83-0.57-2.22-1.45l-9.2-21.24c-1.04-2.4-4.63-1.66-4.63,0.96v19.33
				C64.23,132.48,63.16,133.56,61.83,133.56z"/>
			<path d="M133.27,133.56h-7.89c-1.69,0-2.85-1.69-2.26-3.26l15.8-41.84c0.35-0.94,1.25-1.56,2.26-1.56h14.66
				c1.01,0,1.9,0.62,2.26,1.56l15.73,41.84c0.6,1.57-0.58,3.26-2.26,3.26h-7.82c-1.01,0-1.91-0.62-2.26-1.57l-1.71-4.59
				c-0.35-0.95-1.25-1.57-2.26-1.57H139.5c-1.01,0-1.91,0.62-2.26,1.57l-1.71,4.59C135.18,132.94,134.28,133.56,133.27,133.56z
				 M143.76,117.97h9.51c1.69,0,2.85-1.69,2.26-3.27l-4.76-12.46c-0.79-2.07-3.72-2.07-4.5,0l-4.76,12.46
				C140.9,116.27,142.07,117.97,143.76,117.97z"/>
		</g>
		<g>
			<path d="M217.6,135.2c-11.99,0-20.95-5.76-22.64-14.07c-0.3-1.5,0.84-2.91,2.37-2.91h6.34c1.09,0,2.08,0.71,2.35,1.77
				c1.04,4.1,5.72,6.88,11.94,6.88c6.04,0,9.8-2.69,9.8-6.43c0-4.39-5.67-5.05-12.17-5.77c-10.4-1.18-20.43-3.14-20.43-14.03
				c0-9.11,8.78-15.4,21.45-15.4c11.4,0,19.96,5.44,21.66,13.28c0.32,1.49-0.84,2.91-2.37,2.91h-5.99c-1.08,0-2.03-0.72-2.31-1.76
				c-0.98-3.64-5.2-6.1-10.69-6.1c-5.83,0-9.66,2.42-9.66,5.83c0,4.39,5.23,5.05,11.87,5.83c10.18,1.04,20.72,3.02,20.72,13.77
				C239.87,128.58,230.94,135.2,217.6,135.2z"/>
			<path d="M256.77,96.08h-10.96c-1.33,0-2.41-1.08-2.41-2.41v-4.36c0-1.33,1.08-2.41,2.41-2.41h39.12c1.33,0,2.41,1.08,2.41,2.41
				v4.36c0,1.33-1.08,2.41-2.41,2.41h-10.96c-1.33,0-2.41,1.08-2.41,2.41v32.66c0,1.33-1.08,2.41-2.41,2.41h-7.56
				c-1.33,0-2.41-1.08-2.41-2.41V98.49C259.18,97.15,258.11,96.08,256.77,96.08z"/>
			<path d="M296.87,133.56h-7.89c-1.69,0-2.85-1.69-2.26-3.26l15.8-41.84c0.35-0.94,1.25-1.56,2.26-1.56h14.66
				c1.01,0,1.9,0.62,2.26,1.56l15.73,41.84c0.6,1.57-0.58,3.26-2.26,3.26h-7.82c-1.01,0-1.91-0.62-2.26-1.57l-1.71-4.59
				c-0.35-0.95-1.25-1.57-2.26-1.57H303.1c-1.01,0-1.91,0.62-2.26,1.57l-1.71,4.59C298.79,132.94,297.88,133.56,296.87,133.56z
				 M307.36,117.97h9.51c1.69,0,2.85-1.69,2.26-3.27l-4.76-12.46c-0.79-2.07-3.72-2.07-4.5,0l-4.76,12.46
				C304.51,116.27,305.67,117.97,307.36,117.97z"/>
			<path d="M352.83,116.73l-15.99-26.16c-0.99-1.61,0.18-3.67,2.06-3.67h7.41c0.87,0,1.67,0.47,2.1,1.23l8.81,15.66
				c0.93,1.66,3.33,1.63,4.23-0.04l8.38-15.58c0.42-0.78,1.24-1.27,2.13-1.27h7.65c1.87,0,3.03,2.04,2.07,3.65l-15.68,26.19
				c-0.22,0.37-0.34,0.8-0.34,1.24v13.16c0,1.33-1.08,2.41-2.41,2.41h-7.64c-1.33,0-2.41-1.08-2.41-2.41v-13.16
				C353.19,117.54,353.06,117.11,352.83,116.73z"/>
			<path d="M408.93,135.2c-11.99,0-20.95-5.76-22.64-14.07c-0.3-1.5,0.84-2.91,2.37-2.91H395c1.09,0,2.08,0.71,2.35,1.77
				c1.04,4.1,5.72,6.88,11.94,6.88c6.04,0,9.8-2.69,9.8-6.43c0-4.39-5.67-5.05-12.17-5.77c-10.4-1.18-20.43-3.14-20.43-14.03
				c0-9.11,8.78-15.4,21.45-15.4c11.4,0,19.96,5.44,21.66,13.28c0.32,1.49-0.84,2.91-2.37,2.91h-5.99c-1.08,0-2.03-0.72-2.31-1.76
				c-0.98-3.64-5.2-6.1-10.69-6.1c-5.83,0-9.66,2.42-9.66,5.83c0,4.39,5.23,5.05,11.87,5.83c10.18,1.04,20.72,3.02,20.72,13.77
				C431.19,128.58,422.27,135.2,408.93,135.2z"/>
		</g>
	</g>
</g>
</svg>
